# This file uses centimeters as units for non-parametric coordinates.

mtllib weapon_molot_1.mtl
g default
v -0.178486 0.341930 0.178486
v 0.178486 0.341930 0.178486
v -0.178486 6.965260 0.178486
v 0.178486 6.965260 0.178486
v -0.178486 6.965260 -0.178486
v 0.178486 6.965260 -0.178486
v -0.178486 0.341930 -0.178486
v 0.178486 0.341930 -0.178486
v -0.172310 6.626686 0.172310
v 0.172310 6.626686 0.172310
v -0.172310 6.626686 -0.172310
v 0.172310 6.626686 -0.172310
v -0.172310 5.618292 0.172310
v 0.172310 5.618292 0.172310
v -0.172310 5.618292 -0.172310
v 0.172310 5.618292 -0.172310
v 0.525594 6.626686 -0.979665
v -0.525594 6.626686 -0.979665
v 0.525594 5.618292 -0.979665
v -0.525594 5.618292 -0.979665
v 0.525594 5.618292 0.979665
v -0.525594 5.618292 0.979665
v 0.525594 6.626686 0.979665
v -0.525594 6.626686 0.979665
v -0.134122 1.618641 0.134122
v 0.134122 1.618640 0.134122
v 0.134122 1.618640 -0.134122
v -0.134122 1.618640 -0.134122
v -0.134653 1.020272 0.134653
v 0.134653 1.020271 0.134653
v 0.134653 1.020271 -0.134653
v -0.134653 1.020271 -0.134653
vt 0.096523 0.216681
vt 0.118597 0.216681
vt 0.121740 0.773537
vt 0.093381 0.773537
vt 0.093381 0.913932
vt 0.121740 0.913932
vt 0.122248 0.961071
vt 0.092872 0.961071
vt 0.285087 0.216681
vt 0.263013 0.216681
vt 0.259871 0.773537
vt 0.288230 0.773537
vt 0.288230 0.913932
vt 0.259871 0.913932
vt 0.259363 0.961071
vt 0.288738 0.961071
vt 0.026943 0.773537
vt 0.188177 0.773537
vt 0.188177 0.913932
vt 0.026943 0.913932
vt 0.354667 0.773537
vt 0.193433 0.773537
vt 0.193433 0.913932
vt 0.354667 0.913932
vt 0.096480 0.133372
vt 0.118641 0.133372
vt 0.092872 0.038929
vt 0.122248 0.038929
vt 0.285131 0.133372
vt 0.262970 0.133372
vt 0.288738 0.038929
vt 0.259363 0.038929
vt 0.883330 0.340770
vt 0.926159 0.340770
vt 0.926159 0.383599
vt 0.883330 0.383599
vt 0.834661 0.340770
vt 0.877490 0.340770
vt 0.877490 0.383599
vt 0.834661 0.383599
vt 0.715796 0.209148
vt 0.763130 0.209148
vt 0.811653 0.320039
vt 0.667272 0.320039
vt 0.763130 0.161814
vt 0.811653 0.050923
vt 0.715796 0.161814
vt 0.667272 0.050923
vt 0.909827 0.161814
vt 0.862492 0.161814
vt 0.813969 0.050923
vt 0.958350 0.050923
vt 0.862492 0.209148
vt 0.813969 0.320039
vt 0.909827 0.209148
vt 0.958350 0.320039
vt 0.433594 0.216681
vt 0.474738 0.216681
vt 0.480596 0.773537
vt 0.427737 0.773537
vt 0.427737 0.913932
vt 0.480596 0.913932
vt 0.481543 0.961071
vt 0.426790 0.961071
vt 0.591091 0.961071
vt 0.645844 0.961071
vt 0.644896 0.913932
vt 0.592038 0.913932
vt 0.373549 0.773537
vt 0.534783 0.773537
vt 0.534783 0.913932
vt 0.373549 0.913932
vt 0.537850 0.913932
vt 0.699084 0.913932
vt 0.699084 0.773537
vt 0.537850 0.773537
vt 0.592038 0.773537
vt 0.644896 0.773537
vt 0.639039 0.216681
vt 0.597895 0.216681
vt 0.433513 0.133372
vt 0.474820 0.133372
vt 0.639120 0.133372
vt 0.597814 0.133372
vt 0.645844 0.038929
vt 0.591091 0.038929
vt 0.481543 0.038929
vt 0.426790 0.038929
vn 0.000000 -0.008434 0.999964
vn 0.000000 -0.008434 0.999964
vn 0.000000 -0.009547 0.999954
vn 0.000000 -0.009547 0.999954
vn 0.000000 1.000000 0.000000
vn 0.000000 1.000000 0.000000
vn 0.000000 1.000000 0.000000
vn 0.000000 1.000000 0.000000
vn 0.000000 -0.018237 -0.999834
vn 0.000000 -0.018237 -0.999834
vn 0.000000 -0.018237 -0.999834
vn 0.000000 -0.018237 -0.999834
vn 0.000000 -1.000000 0.000000
vn 0.000000 -1.000000 0.000000
vn 0.000000 -1.000000 0.000000
vn 0.000000 -1.000000 0.000000
vn 0.999964 -0.008434 0.000000
vn 0.999964 -0.008434 0.000000
vn 0.999954 -0.009547 0.000000
vn 0.999954 -0.009547 0.000000
vn -0.999964 -0.008434 0.000000
vn -0.999964 -0.008434 0.000000
vn -0.999954 -0.009547 0.000000
vn -0.999954 -0.009547 0.000000
vn 0.000000 -0.018237 0.999834
vn 0.000000 -0.018237 0.999834
vn 0.000000 -0.018237 0.999834
vn 0.000000 -0.018237 0.999834
vn 0.000000 0.000000 -1.000000
vn 0.000000 0.000000 -1.000000
vn 0.000000 0.000000 -1.000000
vn 0.000000 0.000000 -1.000000
vn 0.999834 -0.018237 0.000000
vn 0.999834 -0.018237 0.000000
vn 0.999834 -0.018237 0.000000
vn 0.999834 -0.018237 0.000000
vn -0.999834 -0.018237 0.000000
vn -0.999834 -0.018237 0.000000
vn -0.999834 -0.018237 0.000000
vn -0.999834 -0.018237 0.000000
vn 0.000000 0.000000 1.000000
vn 0.000000 0.000000 1.000000
vn 0.000000 0.000000 1.000000
vn 0.000000 0.000000 1.000000
vn 1.000000 0.000000 0.000000
vn 1.000000 0.000000 0.000000
vn 1.000000 0.000000 0.000000
vn 1.000000 0.000000 0.000000
vn -1.000000 0.000000 0.000000
vn -1.000000 0.000000 0.000000
vn -1.000000 0.000000 0.000000
vn -1.000000 0.000000 0.000000
vn 0.000000 -0.009547 -0.999954
vn 0.000000 -0.009547 -0.999954
vn 0.000000 -0.008434 -0.999964
vn 0.000000 -0.008434 -0.999964
vn 0.000000 1.000000 -0.000000
vn 0.000000 1.000000 -0.000000
vn 0.000000 1.000000 -0.000000
vn 0.000000 1.000000 -0.000000
vn 0.000000 -1.000000 0.000000
vn 0.000000 -1.000000 0.000000
vn 0.000000 -1.000000 0.000000
vn 0.000000 -1.000000 0.000000
vn 0.000000 -1.000000 -0.000000
vn 0.000000 -1.000000 -0.000000
vn 0.000000 -1.000000 -0.000000
vn 0.000000 -1.000000 -0.000000
vn 0.000000 1.000000 0.000000
vn 0.000000 1.000000 0.000000
vn 0.000000 1.000000 0.000000
vn 0.000000 1.000000 0.000000
vn 0.000000 0.042536 0.999095
vn 0.000000 0.042536 0.999095
vn 0.999095 0.042536 0.000000
vn 0.999095 0.042536 0.000000
vn 0.000000 0.042536 -0.999095
vn 0.000000 0.042536 -0.999095
vn -0.999095 0.042536 -0.000000
vn -0.999095 0.042536 -0.000000
vn 0.000000 0.064483 0.997919
vn 0.000000 0.064483 0.997919
vn 0.997919 0.064483 0.000000
vn 0.997919 0.064483 0.000000
vn 0.000000 0.064483 -0.997919
vn 0.000000 0.064483 -0.997919
vn -0.997919 0.064483 -0.000000
vn -0.997919 0.064483 -0.000000
s 1
g molot:pCube1
usemtl initialShadingGroup
f 25/57/1 26/58/2 14/59/3 13/60/4
s off
f 3/33/5 4/34/6 6/35/7 5/36/8
f 5/65/9 6/66/10 12/67/11 11/68/12
f 7/37/13 8/38/14 2/39/15 1/40/16
s 2
f 26/1/17 27/2/18 16/3/19 14/4/20
s 3
f 28/9/21 25/10/22 13/11/23 15/12/24
s off
f 9/61/25 10/62/26 4/63/27 3/64/28
f 18/73/29 17/74/30 19/75/31 20/76/32
f 10/5/33 12/6/34 6/7/35 4/8/36
f 11/13/37 9/14/38 3/15/39 5/16/40
f 22/69/41 21/70/42 23/71/43 24/72/44
f 21/17/45 19/18/46 17/19/47 23/20/48
f 20/21/49 22/22/50 24/23/51 18/24/52
s 4
f 15/77/53 16/78/54 27/79/55 28/80/56
s 5
f 11/41/57 12/42/58 17/43/59 18/44/60
s 6
f 16/49/61 15/50/62 20/51/63 19/52/64
f 13/53/65 14/55/66 21/56/67 22/54/68
s 5
f 10/45/69 9/47/70 24/48/71 23/46/72
s 6
f 14/55/66 16/49/61 19/52/64 21/56/67
s 5
f 12/42/58 10/45/69 23/46/72 17/43/59
s 6
f 15/50/62 13/53/65 22/54/68 20/51/63
s 5
f 9/47/70 11/41/57 18/44/60 24/48/71
s 1
f 29/81/73 30/82/74 26/58/2 25/57/1
s 2
f 30/25/75 31/26/76 27/2/18 26/1/17
s 4
f 28/80/56 27/79/55 31/83/77 32/84/78
s 3
f 32/29/79 29/30/80 25/10/22 28/9/21
s 1
f 1/88/81 2/87/82 30/82/74 29/81/73
s 2
f 2/27/83 8/28/84 31/26/76 30/25/75
s 4
f 32/84/78 31/83/77 8/85/85 7/86/86
s 3
f 7/31/87 1/32/88 29/30/80 32/29/79
