# This file uses centimeters as units for non-parametric coordinates.

mtllib weapon_serp.mtl
g default
v -0.068505 1.577198 0.034702
v 0.068505 1.577198 0.034702
v -0.237023 1.778495 0.087831
v 0.237023 1.778495 0.087831
v -0.237023 1.778495 -0.314851
v 0.237023 1.778495 -0.314851
v -0.068505 1.577198 -0.261725
v 0.068505 1.577198 -0.261725
v -0.063138 0.785753 -0.250112
v 0.063138 0.785753 -0.250112
v 0.063138 0.785753 0.023088
v -0.063138 0.785753 0.023088
v -0.040525 0.681709 -0.201188
v 0.040525 0.681709 -0.201188
v 0.040525 0.681709 -0.025837
v -0.040525 0.681709 -0.025837
v -0.243726 0.604924 -0.320549
v 0.243726 0.604924 -0.320549
v 0.243726 0.604924 0.093526
v -0.243726 0.604924 0.093526
v -0.072870 1.060108 -0.271168
v 0.072870 1.060108 -0.271168
v 0.072870 1.060108 0.044146
v -0.072870 1.060108 0.044146
v -0.240967 1.727831 0.091183
v 0.240967 1.727831 0.091183
v 0.240967 1.727831 -0.318203
v -0.240967 1.727831 -0.318203
v -0.237023 1.727831 0.347765
v 0.237023 1.727831 0.347765
v 0.237023 1.778495 0.347765
v -0.237023 1.778495 0.347765
v -0.237023 1.778495 -0.574787
v 0.237023 1.778495 -0.574787
v 0.237023 1.727831 -0.574787
v -0.237023 1.727831 -0.574787
v -0.142728 1.788980 0.068419
v 0.142728 1.788980 0.068419
v 0.142728 1.788980 -0.295444
v -0.142728 1.788980 -0.295444
v -0.039099 1.788980 0.025005
v 0.039099 1.788980 0.025005
v 0.046962 1.788980 -0.228863
v -0.046962 1.788980 -0.228863
v -0.000328 2.791201 0.810601
v 0.049867 3.233403 0.451652
v -0.049867 3.233403 0.451652
v -0.041517 2.990094 0.449517
v 0.041517 2.990094 0.449517
v -0.000117 1.577198 0.034702
v -0.000117 1.060108 0.044146
v -0.000117 0.785753 0.023088
v -0.000117 0.681709 -0.025837
v -0.000328 0.604924 0.093526
v -0.000328 0.604924 -0.320549
v -0.000117 0.681709 -0.201188
v -0.000117 0.785753 -0.250112
v -0.000117 1.060108 -0.271168
v -0.000117 1.577198 -0.261725
v -0.000328 1.727831 -0.318203
v -0.000328 1.727831 -0.574787
v -0.000328 1.778495 -0.574787
v -0.000328 1.778495 -0.314851
v -0.000328 1.788980 -0.295444
v -0.000328 1.788980 -0.288356
v -0.000328 3.287494 0.455514
v -0.000328 2.957067 0.447157
v -0.000328 1.788980 0.061330
v -0.000328 1.788980 0.068419
v -0.000328 1.778495 0.087831
v -0.000328 1.778495 0.347765
v -0.000328 1.727831 0.347765
v -0.000328 1.727831 0.091183
v -0.040272 2.874287 -0.619348
v -0.000328 2.858503 -0.600153
v 0.040272 2.874287 -0.619348
v 0.048371 2.990524 -0.761079
v -0.000328 3.016371 -0.792517
v -0.048371 2.990524 -0.761079
v -0.007810 2.237867 -0.562884
v 0.037908 2.245102 -0.546438
v 0.068596 2.229765 -0.582327
v 0.020488 2.150426 -0.770807
v -0.038540 2.136895 -0.801775
v -0.071285 2.160157 -0.747454
v -0.000328 3.119579 -0.075705
v -0.040895 3.143297 -0.084106
v -0.049120 3.318010 -0.153795
v -0.000328 3.356853 -0.167556
v 0.049120 3.318010 -0.153795
v 0.040895 3.143297 -0.084106
vt 0.845160 0.587277
vt 0.773749 0.496905
vt 0.847786 0.573823
vt 0.912030 0.183117
vt 0.991456 0.183116
vt 0.990805 0.192980
vt 0.912681 0.192981
vt 0.982331 0.038384
vt 0.921156 0.038380
vt 0.925241 -0.014930
vt 0.978245 -0.014929
vt 0.934733 -0.035589
vt 0.968754 -0.035591
vt 0.911576 -0.077700
vt 0.991911 -0.077700
vt 0.980498 0.138619
vt 0.539112 0.183117
vt 0.618537 0.183117
vt 0.617887 0.192981
vt 0.539762 0.192980
vt 0.609411 0.038382
vt 0.548237 0.038386
vt 0.552322 -0.014928
vt 0.605326 -0.014929
vt 0.561814 -0.035592
vt 0.595834 -0.035590
vt 0.538657 -0.077698
vt 0.618992 -0.077698
vt 0.607579 0.138613
vt 0.550069 0.138618
vt 0.668317 0.183111
vt 0.668317 0.192947
vt 0.922988 0.138615
vt 0.862250 0.192947
vt 0.862250 0.183113
vt 1.041236 0.183119
vt 1.041236 0.192940
vt 0.947933 0.553638
vt 0.946153 0.544654
vt 1.039248 0.504446
vt 1.045493 0.508903
vt 1.069540 0.529747
vt 0.960747 0.587197
vt 1.078501 0.536024
vt 0.964171 0.598954
vt 0.846165 0.518664
vt 0.845212 0.528654
vt 1.032403 0.408307
vt 1.039740 0.404240
vt 1.071970 0.389008
vt 1.082360 0.384048
vt 0.923031 0.336320
vt 0.931654 0.332365
vt 0.489331 0.192939
vt 0.489331 0.183117
vt 0.459782 0.530750
vt 0.483920 0.509405
vt 0.582320 0.554105
vt 0.569532 0.587682
vt 0.682588 0.574231
vt 0.685040 0.529040
vt 0.756249 0.497143
vt 0.566167 0.599350
vt 0.450977 0.537385
vt 0.685196 0.587624
vt 0.684088 0.519140
vt 0.490039 0.504636
vt 0.584091 0.545224
vt 0.494224 0.405184
vt 0.500884 0.409588
vt 0.450473 0.384561
vt 0.461233 0.389538
vt 0.117346 0.930435
vt 0.117346 0.797284
vt 0.180128 0.797284
vt 0.180128 0.930435
vt 0.054731 0.797284
vt 0.054731 0.930435
vt 0.248902 0.957978
vt 0.248956 0.919597
vt 0.259411 0.919597
vt 0.311685 0.957978
vt 0.238561 0.919597
vt 0.186288 0.957978
vt 0.259411 0.863210
vt 0.311685 0.824828
vt 0.238561 0.863210
vt 0.186288 0.824828
vt 0.248956 0.863210
vt 0.248902 0.824828
vt 0.400352 0.886901
vt 0.317844 0.886901
vt 0.317844 0.824828
vt 0.400352 0.825842
vt 0.317844 0.948805
vt 0.400352 0.947791
vt 0.386251 0.607906
vt 0.325193 0.607906
vt 0.325193 0.524320
vt 0.386251 0.524320
vt 0.325193 0.614148
vt 0.361994 0.614148
vt 0.264303 0.607906
vt 0.264303 0.524320
vt 0.288560 0.614148
vt 0.386251 0.737393
vt 0.361994 0.731152
vt 0.325193 0.616427
vt 0.335335 0.628108
vt 0.315219 0.628108
vt 0.264303 0.737393
vt 0.288560 0.731152
vt 0.325193 0.737393
vt 0.325193 0.731152
vt 0.337358 0.709742
vt 0.313196 0.709742
vt 0.325193 0.820979
vt 0.386251 0.820979
vt 0.325193 0.728873
vt 0.264303 0.820979
vt 0.490562 0.824828
vt 0.490562 0.886901
vt 0.408054 0.886901
vt 0.408054 0.825842
vt 0.490562 0.948805
vt 0.408054 0.947791
vt 0.600274 0.331453
vt 0.608573 0.336019
vt 0.542903 0.322395
vt 0.555708 0.327293
vt 0.511298 0.885886
vt 0.498265 0.885886
vt 0.498265 0.824828
vt 0.511298 0.824828
vt 0.498265 0.946776
vt 0.511298 0.946776
vt 0.531971 0.885886
vt 0.518938 0.885886
vt 0.518938 0.824828
vt 0.531971 0.824828
vt 0.518938 0.946776
vt 0.531971 0.946776
vt 0.196367 0.766670
vt 0.196367 0.696093
vt 0.215143 0.696093
vt 0.212640 0.766670
vt 0.177652 0.696093
vt 0.180155 0.766670
vt 0.196367 0.563071
vt 0.214021 0.563071
vt 0.196367 0.793435
vt 0.206823 0.793435
vt 0.178775 0.563071
vt 0.185973 0.793435
vt 0.196313 0.524320
vt 0.258387 0.524320
vt 0.134409 0.524320
vt 0.085249 0.621663
vt 0.066473 0.621663
vt 0.066473 0.551086
vt 0.082746 0.551086
vt 0.084127 0.754685
vt 0.066473 0.754685
vt 0.047758 0.621663
vt 0.050262 0.551086
vt 0.066473 0.524320
vt 0.076929 0.524320
vt 0.066419 0.793435
vt 0.128493 0.793435
vt 0.048881 0.754685
vt 0.056079 0.524320
vt 0.004515 0.793435
vt 0.988939 0.324713
vt 0.975997 0.328785
vn 0.000000 0.000000 1.000000
vn 0.000000 0.000000 1.000000
vn 0.000000 0.000000 1.000000
vn 0.000000 0.000000 1.000000
vn 0.001165 0.581879 0.813274
vn 0.002775 0.581878 0.813272
vn 0.567720 0.479015 0.669506
vn 0.000000 0.000000 -1.000000
vn 0.000000 0.000000 -1.000000
vn 0.000000 0.000000 -1.000000
vn 0.000000 0.000000 -1.000000
vn 0.000000 -1.000000 0.000000
vn 0.000000 -1.000000 0.000000
vn 0.000000 -1.000000 0.000000
vn 0.000000 -1.000000 0.000000
vn 0.850320 -0.526265 0.001171
vn 0.850319 -0.526266 -0.001171
vn 0.997969 0.063638 -0.002775
vn 0.997969 0.063638 0.002775
vn -0.850319 -0.526266 -0.001171
vn -0.850320 -0.526264 0.001171
vn -0.997969 0.063638 0.002775
vn -0.997969 0.063638 -0.002775
vn 0.000000 -0.076522 -0.997068
vn 0.000000 -0.013844 -0.999904
vn 0.000000 -0.013478 -0.999909
vn 0.000000 -0.076522 -0.997068
vn 0.999982 -0.005929 0.000000
vn 0.999982 -0.005929 0.000000
vn 0.999371 -0.035450 0.000000
vn 0.999371 -0.035450 0.000000
vn 0.000000 -0.013479 0.999909
vn 0.000000 -0.013845 0.999904
vn 0.000000 -0.076529 0.997067
vn 0.000000 -0.076529 0.997067
vn -0.999982 -0.005929 0.000000
vn -0.999982 -0.005929 0.000000
vn -0.999371 -0.035450 0.000000
vn -0.999371 -0.035450 0.000000
vn 0.000000 0.662674 -0.748908
vn 0.000000 -0.425520 -0.904949
vn 0.000000 -0.425521 -0.904948
vn 0.000000 0.715730 -0.698377
vn 0.977187 -0.212381 0.000000
vn 0.977187 -0.212381 0.000000
vn 0.977187 -0.212381 0.000000
vn 0.977187 -0.212381 0.000000
vn 0.000000 -0.425530 0.904945
vn 0.000000 -0.425528 0.904945
vn 0.000000 0.662678 0.748904
vn 0.000000 0.715736 0.698371
vn -0.977187 -0.212381 0.000000
vn -0.977187 -0.212381 0.000000
vn -0.977187 -0.212381 0.000000
vn -0.977187 -0.212381 0.000000
vn 0.000000 0.841007 -0.541025
vn 0.000000 0.841003 -0.541030
vn 0.353482 0.935441 0.000000
vn 0.353482 0.935441 0.000000
vn 0.353482 0.935441 0.000000
vn 0.353482 0.935441 0.000000
vn 0.000000 0.841009 0.541020
vn 0.000000 0.841008 0.541023
vn -0.353482 0.935441 0.000000
vn -0.353482 0.935441 0.000000
vn -0.353482 0.935441 0.000000
vn -0.353482 0.935441 0.000000
vn 0.000000 -0.133633 -0.991031
vn 0.000000 -0.171587 -0.985169
vn 0.953042 -0.302839 0.000000
vn 0.953041 -0.302841 0.000000
vn 0.000000 -0.171593 0.985168
vn 0.000000 -0.133639 0.991030
vn -0.953041 -0.302841 0.000000
vn -0.953042 -0.302839 0.000000
vn 0.000000 -0.351086 0.936343
vn 0.000000 -0.351088 0.936342
vn 0.000000 -0.351072 -0.936348
vn 0.000000 -0.351074 -0.936348
vn 0.000000 -1.000000 0.000001
vn 0.000000 -1.000000 0.000001
vn 0.000000 -1.000000 0.000003
vn 0.000000 -1.000000 0.000003
vn 0.999204 0.039147 0.007630
vn 0.999204 0.039147 0.007630
vn 0.000000 1.000000 0.000000
vn 0.000000 1.000000 0.000000
vn 0.000000 1.000000 0.000000
vn 0.000000 1.000000 0.000000
vn -0.999204 0.039147 0.007630
vn -0.999204 0.039147 0.007630
vn 0.000000 1.000000 0.000000
vn 0.000000 1.000000 0.000000
vn 0.000000 1.000000 0.000000
vn 0.000000 1.000000 0.000000
vn 0.999204 0.039146 -0.007630
vn 0.999204 0.039146 -0.007630
vn 0.000000 -1.000000 -0.000003
vn 0.000000 -1.000000 -0.000001
vn 0.000000 -1.000000 -0.000001
vn 0.000000 -1.000000 -0.000003
vn -0.999204 0.039146 -0.007630
vn -0.999204 0.039146 -0.007630
vn 0.000000 0.879864 0.475225
vn 0.000000 0.879864 0.475225
vn 0.000000 0.879855 0.475243
vn 0.000000 0.879855 0.475243
vn 0.110508 0.993875 0.000000
vn 0.110508 0.993875 0.000000
vn 0.110508 0.993875 0.000000
vn 0.110508 0.993875 0.000000
vn 0.000000 0.879803 -0.475338
vn 0.000000 0.879813 -0.475319
vn 0.000000 0.879813 -0.475319
vn 0.000000 0.879804 -0.475338
vn -0.110508 0.993875 0.000000
vn -0.110508 0.993875 0.000000
vn -0.110508 0.993875 0.000000
vn -0.110508 0.993875 0.000000
vn 0.000000 1.000000 0.000016
vn 0.000000 1.000000 0.000016
vn 0.000000 1.000000 0.000006
vn 0.000000 1.000000 0.000006
vn 0.000000 1.000000 -0.000003
vn 0.000000 1.000000 -0.000003
vn 0.000000 1.000000 -0.000003
vn 0.000000 1.000000 -0.000003
vn 0.000000 1.000000 0.000000
vn 0.000000 1.000000 0.000000
vn 0.000000 1.000000 0.000000
vn 0.000000 1.000000 0.000000
vn 0.000000 1.000000 0.000000
vn 0.000000 1.000000 0.000000
vn 0.000000 1.000000 0.000000
vn 0.000000 1.000000 0.000000
vn 0.544331 -0.830057 0.121283
vn -0.000363 -0.998386 0.056785
vn 0.069618 -0.473780 0.877887
vn 0.633962 -0.383133 0.671789
vn 0.998358 -0.020763 -0.053384
vn 0.998364 -0.020796 -0.053264
vn 0.999110 -0.041243 0.008859
vn 0.999147 -0.041229 0.002162
vn 0.616428 0.340005 -0.710221
vn -0.060666 0.467948 -0.881672
vn 0.000404 0.971172 -0.238380
vn 0.669660 0.731678 -0.127292
vn -0.992582 -0.018292 0.120195
vn -0.992263 -0.017666 0.122889
vn -0.999147 -0.041229 0.002162
vn -0.999110 -0.041243 0.008859
vn 0.003672 -0.909732 -0.415179
vn 0.000040 -0.945409 -0.325886
vn 0.550107 -0.792338 -0.263784
vn 0.998838 -0.039012 0.028291
vn 0.999167 -0.040256 0.006747
vn 0.994765 -0.034980 0.096011
vn -0.999169 -0.040253 0.006465
vn -0.998856 -0.039007 0.027645
vn -0.994936 -0.034970 0.094230
vn 0.000000 -0.171635 0.985161
vn 0.000000 -0.013477 0.999909
vn 0.000000 -0.076528 0.997067
vn 0.000000 -0.425527 0.904946
vn 0.000000 0.715925 0.698178
vn 0.000000 0.841011 0.541018
vn 0.000000 -1.000000 0.000000
vn 0.000000 -1.000000 0.000000
vn 0.000000 0.715923 -0.698180
vn 0.000000 0.841010 -0.541019
vn 0.000000 -0.425518 -0.904950
vn 0.000000 -0.013476 -0.999909
vn 0.000000 -0.076522 -0.997068
vn 0.000000 -0.171627 -0.985162
vn 0.000000 -0.351070 -0.936349
vn 0.000000 -1.000000 0.000000
vn 0.000000 -1.000000 0.000000
vn 0.000000 0.000000 -1.000000
vn 0.000000 0.000000 -1.000000
vn 0.000000 1.000000 0.000000
vn 0.000000 1.000000 0.000000
vn 0.000000 0.879823 -0.475301
vn 0.000000 0.879823 -0.475301
vn 0.000000 1.000000 0.000000
vn 0.000000 1.000000 0.000000
vn -0.674592 0.727299 -0.126339
vn -0.733861 0.352041 -0.580961
vn -0.572779 0.476973 0.666649
vn -0.556192 -0.788509 -0.262497
vn -0.513548 -0.417789 0.749480
vn -0.550444 -0.826031 0.121179
vn 0.000000 1.000000 0.000026
vn 0.000000 1.000000 0.000026
vn 0.000000 0.879874 0.475206
vn 0.000000 0.879874 0.475206
vn 0.000000 1.000000 0.000000
vn 0.000000 1.000000 0.000000
vn 0.000000 0.000000 1.000000
vn 0.000000 0.000000 1.000000
vn 0.000000 -1.000000 -0.000000
vn 0.000000 -1.000000 -0.000000
vn 0.000000 -0.351085 0.936344
vn -0.423192 0.448528 0.787230
vn 0.180124 0.533686 0.826278
vn 0.648532 0.341902 0.680080
vn 0.993878 -0.057412 -0.094395
vn 0.993925 -0.041364 -0.101990
vn 0.549159 -0.339413 -0.763690
vn -0.089796 -0.333114 -0.938601
vn -0.767298 -0.285132 -0.574415
vn -0.980734 0.072583 0.181361
vn -0.980760 0.099584 0.167910
vn -0.399752 0.741902 0.538312
vn 0.091895 0.794776 0.599905
vn 0.630637 0.607190 0.483340
vn 0.991829 -0.105819 -0.071256
vn 0.991829 -0.105819 -0.071256
vn 0.514091 -0.696953 -0.499966
vn -0.102667 -0.824120 -0.557033
vn -0.709998 -0.597230 -0.373121
vn -0.975534 0.179521 0.126909
vn -0.975534 0.179521 0.126909
vn 0.000000 0.992307 0.123803
vn -0.679191 0.728316 0.090865
vn 0.674332 0.732747 0.091422
s 1
g Serp:pCube1
usemtl initialShadingGroup
f 71/131/1 72/132/2 30/133/3 31/134/4
s 2
f 66/1/5 45/2/6 46/3/7
s 3
f 61/137/8 62/138/9 34/139/10 35/140/11
s 4
f 54/73/12 55/74/13 18/75/14 19/76/15
s 5
f 26/4/16 27/5/17 6/6/18 4/7/19
s 6
f 28/17/20 25/18/21 3/19/22 5/20/23
s 7
f 57/143/24 58/144/25 22/145/26 10/146/27
s 5
f 22/8/28 23/9/29 11/10/30 10/11/31
s 9
f 23/158/32 51/159/33 52/160/34 11/161/35
s 6
f 24/21/36 21/22/37 9/23/38 12/24/39
s 11
f 56/151/40 57/143/41 10/146/42 14/152/43
s off
f 10/11/44 11/10/45 15/12/46 14/13/47
s 12
f 11/161/48 52/160/49 53/166/50 15/167/51
s off
f 12/24/52 9/23/53 13/25/54 16/26/55
s 11
f 55/79/56 56/80/40 14/81/43 18/82/57
s off
f 14/13/58 15/12/59 19/14/60 18/15/61
s 12
f 15/85/51 53/89/50 54/90/62 19/86/63
s off
f 16/26/64 13/25/65 17/27/66 20/28/67
s 7
f 58/144/25 59/149/68 8/150/69 22/145/26
s 5
f 8/16/70 2/33/71 23/9/29 22/8/28
s 9
f 2/162/72 50/163/73 51/159/33 23/158/32
s 6
f 1/29/74 7/30/75 21/22/37 24/21/36
s 9
f 73/168/76 50/163/73 2/162/72 26/169/77
s 5
f 2/33/71 8/16/70 27/5/17 26/4/16
s 7
f 59/149/68 60/155/78 27/156/79 8/150/69
s 6
f 7/30/75 1/29/74 25/18/21 28/17/20
s 13
f 72/91/80 73/92/81 26/93/82 30/94/83
s 5
f 26/4/16 4/7/19 31/34/84 30/35/85
s 14
f 4/97/86 70/98/87 71/99/88 31/100/89
s 6
f 3/19/22 25/18/21 29/31/90 32/32/91
s 15
f 62/117/92 63/113/93 6/106/94 34/118/95
s 5
f 6/6/18 27/5/17 35/36/96 34/37/97
s 16
f 27/121/98 60/122/99 61/123/100 35/124/101
s 6
f 28/17/20 5/20/23 33/54/102 36/55/103
s 17
f 69/101/104 70/98/105 4/97/106 38/102/107
s off
f 4/97/108 6/106/109 39/107/110 38/102/111
s 18
f 6/106/112 63/113/113 64/114/114 39/107/115
s off
f 5/111/116 3/103/117 37/105/118 40/112/119
s 19
f 68/108/120 69/101/121 38/102/122 42/109/123
s off
f 38/102/124 39/107/125 43/115/126 42/109/127
s 20
f 39/107/128 64/114/129 65/119/130 43/115/131
s off
f 40/112/132 37/105/133 41/110/134 44/116/135
s 21
f 91/38/136 86/39/137 75/40/138 76/41/139
s 22
f 76/41/140 77/42/141 90/43/142 91/38/143
s 23
f 77/42/144 78/44/145 89/45/146 90/43/147
s 24
f 79/56/148 74/57/149 87/58/150 88/59/151
s 21
f 45/2/152 67/46/153 49/47/154
s 22
f 49/47/155 46/3/156 45/2/157
s 24
f 47/60/158 48/61/159 45/62/160
s 9
f 51/159/33 50/163/73 1/170/161 24/164/162
f 52/160/34 51/159/33 24/164/162 12/165/163
s 12
f 53/166/50 52/160/49 12/165/164 16/171/165
f 54/90/62 53/89/50 16/87/165 20/88/166
s 4
f 17/77/167 55/74/13 54/73/12 20/78/168
s 11
f 13/83/169 56/80/40 55/79/56 17/84/170
f 9/148/171 57/143/41 56/151/40 13/154/169
s 7
f 21/147/172 58/144/25 57/143/24 9/148/173
f 7/153/174 59/149/68 58/144/25 21/147/172
f 28/157/175 60/155/78 59/149/68 7/153/174
s 16
f 61/123/100 60/122/99 28/125/176 36/126/177
s 3
f 33/141/178 62/138/9 61/137/8 36/142/179
s 15
f 5/111/180 63/113/93 62/117/92 33/120/181
s 18
f 64/114/114 63/113/113 5/111/182 40/112/183
s 20
f 65/119/130 64/114/129 40/112/184 44/116/185
s 23
f 88/59/186 89/63/146 78/64/145 79/56/187
s 2
f 45/62/6 66/65/5 47/60/188
s 21
f 48/61/189 67/66/153 45/62/152
f 74/57/190 75/67/138 86/68/137 87/58/191
s 19
f 37/105/192 69/101/121 68/108/120 41/110/193
s 17
f 3/103/194 70/98/105 69/101/104 37/105/195
s 14
f 71/99/88 70/98/87 3/103/196 32/104/197
s 1
f 29/135/198 72/132/2 71/131/1 32/136/199
s 13
f 25/95/200 73/92/81 72/91/80 29/96/201
s 9
f 1/170/161 50/163/73 73/168/76 25/172/202
s 21
f 80/69/203 81/70/204 75/67/138 74/57/190
f 76/41/139 75/40/138 81/48/204 82/49/205
s 22
f 82/49/206 83/50/207 77/42/141 76/41/140
s 23
f 83/50/208 84/51/209 78/44/145 77/42/144
f 79/56/187 78/64/145 84/71/209 85/72/210
s 24
f 85/72/211 80/69/212 74/57/149 79/56/148
s 21
f 41/127/213 68/128/214 81/70/204 80/69/203
f 82/49/205 81/48/204 68/52/214 42/53/215
s 22
f 42/53/216 43/174/217 83/50/207 82/49/206
s 23
f 43/174/218 65/173/219 84/51/209 83/50/208
f 85/72/210 84/71/209 65/129/219 44/130/220
s 24
f 44/130/221 41/127/222 80/69/212 85/72/211
s 21
f 87/58/191 86/68/137 67/66/153 48/61/189
s 24
f 88/59/151 87/58/150 48/61/159 47/60/158
s 23
f 66/65/223 89/63/146 88/59/186 47/60/224
f 90/43/147 89/45/146 66/1/223 46/3/225
s 22
f 91/38/143 90/43/142 46/3/156 49/47/155
s 21
f 67/46/153 86/39/137 91/38/136 49/47/154
